<?xml version="1.0" standalone="no"?>
<!DOCTYPE svg PUBLIC "-//W3C//DTD SVG 20010904//EN"
 "http://www.w3.org/TR/2001/REC-SVG-20010904/DTD/svg10.dtd">
<svg version="1.0" xmlns="http://www.w3.org/2000/svg"
 width="900.000000pt" height="720.000000pt" viewBox="0 0 900.000000 720.000000"
 preserveAspectRatio="xMidYMid meet">

<g transform="translate(0.000000,720.000000) scale(0.100000,-0.100000)"
fill="#000000" stroke="none">
<path d="M4246 6455 c-44 -15 -162 -94 -213 -142 l-34 -31 -82 15 c-90 16
-185 12 -198 -9 -14 -21 -10 -64 10 -120 33 -90 34 -99 17 -92 -10 4 -18 0
-22 -10 -9 -22 -78 -21 -199 4 -116 24 -144 25 -151 5 -12 -31 98 -232 182
-330 l53 -63 -74 -56 c-102 -79 -207 -193 -237 -257 -38 -82 -41 -103 -17
-133 38 -49 209 -152 327 -197 81 -31 112 -48 112 -60 0 -22 89 -60 146 -62
24 -1 44 -5 44 -8 0 -4 -26 -31 -57 -60 l-58 -52 50 5 c28 3 58 9 68 13 16 7
18 4 15 -16 -3 -24 -6 -24 -163 -36 -88 -6 -175 -14 -193 -17 -29 -4 -33 -3
-27 12 4 9 10 47 12 83 5 61 4 67 -18 83 -33 23 -47 20 -68 -15 l-19 -30 -6
25 c-7 30 -39 50 -66 41 -19 -6 -40 -58 -40 -101 0 -30 -10 -35 -34 -19 -28
21 -39 19 -71 -11 l-29 -27 -17 22 c-38 46 -85 11 -80 -60 l2 -37 -108 -7
c-59 -3 -149 -11 -199 -15 -126 -13 -547 -13 -674 -1 -159 16 -246 14 -264 -5
-37 -36 -4 -111 78 -177 78 -64 96 -70 179 -53 39 8 110 20 157 26 47 5 114
15 150 20 36 5 99 12 140 15 96 8 424 43 515 54 38 5 72 8 76 5 14 -8 48 -112
79 -236 17 -68 42 -159 56 -202 46 -144 142 -308 191 -327 58 -22 67 -15 147
104 104 155 98 149 130 137 15 -5 29 -10 30 -10 6 0 64 99 71 119 3 12 11 21
16 21 16 0 10 -30 -16 -82 -14 -28 -24 -53 -22 -55 3 -2 19 8 36 22 l31 27 0
-44 c0 -70 26 -132 76 -177 50 -47 81 -55 69 -18 -21 69 -20 72 16 33 22 -24
61 -47 113 -69 43 -17 77 -36 75 -42 -5 -13 -106 -8 -290 15 -151 18 -223 15
-241 -11 -12 -19 -4 -89 22 -179 16 -56 23 -114 27 -225 3 -82 10 -155 15
-161 6 -8 -2 -18 -24 -32 -53 -32 -218 -116 -276 -139 -71 -29 -67 -48 16 -89
35 -17 69 -40 77 -51 8 -12 31 -24 52 -28 l38 -7 -40 -34 c-22 -18 -47 -34
-55 -34 -8 0 -38 -13 -66 -30 -38 -21 -57 -41 -73 -73 -24 -50 -27 -92 -7
-100 19 -8 1 -83 -27 -114 -19 -21 -19 -28 -9 -179 10 -140 14 -164 39 -213
23 -45 32 -55 50 -53 17 2 24 -5 33 -33 9 -27 9 -39 0 -49 -12 -16 7 -115 35
-183 19 -44 12 -89 -16 -103 -13 -8 -19 -22 -19 -48 0 -52 -26 -200 -45 -264
-9 -29 -25 -85 -35 -124 -17 -65 -56 -150 -155 -334 -60 -113 -80 -183 -80
-290 0 -88 3 -101 33 -163 27 -53 41 -71 72 -87 22 -11 50 -20 62 -20 60 1
145 65 170 129 29 74 120 466 128 554 9 90 15 112 71 236 34 75 68 143 75 152
8 8 14 22 14 31 0 8 8 22 18 31 16 14 22 14 72 -3 99 -34 130 -26 130 36 0 28
9 33 65 37 38 2 40 1 45 -33 5 -32 9 -36 58 -52 31 -10 92 -18 148 -19 114 -3
147 13 152 74 2 23 8 37 17 37 7 0 20 3 28 6 10 4 16 -5 21 -30 10 -53 36 -66
136 -66 67 1 95 6 130 23 40 19 45 26 44 54 -2 29 1 31 35 36 50 6 58 1 65
-39 4 -18 15 -38 24 -43 27 -13 161 -12 230 2 66 15 72 13 72 -14 0 -10 14
-40 30 -66 17 -26 30 -52 30 -57 0 -6 14 -40 31 -76 28 -58 31 -74 30 -150 -2
-108 23 -165 104 -241 37 -35 68 -76 87 -116 45 -96 137 -159 273 -188 125
-26 152 -20 184 43 10 18 9 34 -4 80 -23 78 -62 146 -167 285 -85 113 -89 120
-83 157 4 25 2 40 -5 45 -9 5 -11 -8 -8 -48 1 -31 -1 -52 -5 -48 -5 5 -16 3
-25 -5 -45 -39 -81 -64 -93 -64 -7 0 -23 -9 -35 -21 -18 -17 -25 -18 -40 -9
-37 24 -105 116 -141 190 -34 71 -113 250 -113 256 0 2 8 0 17 -3 14 -6 13 0
-6 30 l-23 37 39 0 c53 0 135 43 179 93 l37 42 -6 -37 c-3 -21 -1 -40 4 -43
12 -8 11 -61 -2 -108 -11 -41 -4 -62 11 -37 12 19 12 13 1 -26 -5 -17 -5 -37
-1 -44 9 -14 30 -5 30 13 0 7 -4 6 -10 -3 -9 -13 -10 -13 -9 0 0 8 4 24 8 35
7 17 9 16 15 -9 5 -19 10 -26 17 -19 7 7 4 30 -9 69 -11 32 -23 94 -27 137 -6
63 -12 81 -29 93 -15 12 -17 17 -8 21 80 30 222 310 182 358 -8 9 -9 29 -5 55
5 30 11 40 26 40 11 0 28 14 39 32 38 63 65 247 39 264 -8 5 -9 34 -5 94 5 53
3 95 -3 107 -5 10 -15 40 -22 66 -13 51 -43 97 -63 97 -7 0 -20 17 -30 37 -30
63 -73 109 -128 137 l-53 27 -3 61 c-4 70 -24 118 -54 126 -27 7 -60 85 -49
115 27 70 -84 197 -173 197 -35 0 -41 29 -20 98 31 107 43 167 44 219 0 74
-23 88 -125 80 -74 -7 -251 -57 -292 -83 -32 -20 -29 -4 12 56 22 33 36 65 36
89 2 30 3 31 6 9 5 -31 18 -37 27 -12 10 27 -66 256 -80 241 -2 -2 3 -20 11
-40 23 -57 18 -61 -31 -25 -62 44 -84 77 -84 127 0 23 -5 41 -11 41 -8 0 -10
-24 -7 -75 2 -41 2 -75 1 -75 -2 0 -10 17 -19 38 -29 69 -16 232 20 232 6 0
18 -16 25 -36 16 -44 24 -40 11 6 -7 25 -6 36 3 42 18 12 20 11 63 -26 48 -41
78 -99 105 -202 17 -69 18 -88 9 -144 -7 -41 -8 -66 -2 -68 6 -2 16 -23 23
-48 7 -24 17 -44 20 -44 15 0 31 73 25 111 -7 44 -8 43 30 29 15 -6 34 -8 42
-5 13 5 11 9 -6 21 -28 20 -54 68 -46 88 3 9 9 16 13 16 15 0 190 -105 243
-146 61 -47 90 -54 138 -29 33 17 43 44 66 175 12 73 15 145 12 312 l-3 217
26 26 26 27 13 -46 c7 -25 28 -63 47 -86 28 -32 41 -40 69 -40 20 0 44 5 55
11 17 9 32 -1 108 -73 119 -113 281 -223 281 -191 0 4 -30 38 -67 76 l-68 68
112 -56 c191 -94 248 -110 388 -110 83 1 141 6 190 19 86 23 145 46 145 56 0
4 -21 12 -47 17 l-48 10 50 8 c39 6 61 18 100 52 48 42 104 109 105 126 0 4
-39 8 -87 8 l-88 1 79 14 c85 14 111 30 133 82 10 24 20 32 38 32 24 0 25 3
25 58 0 67 -21 155 -50 212 -16 32 -26 40 -48 40 -17 0 -38 10 -52 25 -13 14
-27 25 -32 25 -16 0 -81 30 -76 35 3 3 56 -2 118 -10 62 -9 115 -13 118 -10 8
7 -84 101 -184 186 -81 68 -82 69 -140 69 -42 0 -66 6 -83 19 l-24 18 86 13
c48 7 87 15 87 19 -1 14 -129 102 -185 126 -49 22 -69 26 -109 20 -61 -8 -142
-38 -275 -103 -98 -48 -102 -49 -75 -20 l29 30 -53 -21 c-135 -54 -216 -105
-322 -206 -72 -70 -77 -73 -134 -78 -71 -7 -102 -32 -111 -91 -10 -56 -24 -81
-38 -67 -6 6 -30 11 -53 11 -26 0 -47 6 -55 16 -9 10 -22 14 -41 10 -24 -5
-29 -2 -34 22 -13 59 -16 63 -37 60 -29 -4 -56 -87 -58 -174 l-2 -62 -81 -7
c-71 -5 -151 -14 -278 -30 -37 -5 -38 -4 -38 25 0 18 5 30 13 30 7 0 41 11 75
24 47 19 69 23 92 16 26 -7 33 -4 60 27 17 19 39 51 48 70 12 25 32 43 73 64
61 30 147 117 181 183 18 35 18 44 7 83 -6 24 -39 81 -71 126 -98 136 -191
290 -191 317 0 14 17 65 38 114 20 49 40 106 42 127 l5 37 -48 9 c-27 4 -129
8 -226 8 -98 0 -178 3 -178 7 0 4 -30 40 -67 79 -64 67 -163 147 -243 196 -93
57 -207 81 -274 58z m-370 -174 c50 -5 124 -19 165 -31 96 -28 349 -149 349
-167 0 -7 5 -13 11 -13 6 0 10 10 9 23 -1 12 -2 28 -1 35 1 17 55 15 99 -4 20
-9 68 -19 106 -23 90 -8 104 -31 19 -32 -32 0 -97 -6 -146 -13 -60 -8 -111 -9
-165 -3 -88 10 -249 3 -313 -13 -43 -11 -117 -60 -91 -60 7 0 10 -5 7 -10 -4
-7 3 -8 22 -4 39 9 56 27 18 19 -28 -5 -28 -5 -6 5 14 6 42 10 64 8 28 -1 42
3 48 15 13 23 29 22 29 -2 0 -15 6 -19 25 -16 41 4 28 -13 -27 -37 -29 -12
-95 -43 -147 -70 -52 -26 -98 -45 -102 -43 -4 3 -10 24 -14 48 -4 23 -23 96
-42 162 -61 209 -64 235 -26 235 10 0 59 -4 109 -9z m1282 -183 l104 -12 -5
-32 c-6 -35 -63 -184 -76 -197 -5 -5 -22 14 -39 42 -18 28 -50 64 -72 80 -42
30 -178 78 -257 90 -45 6 -41 8 72 22 159 21 154 21 273 7z m-515 -164 c139
-30 307 -130 307 -181 0 -11 -9 -28 -21 -39 -20 -18 -21 -18 -37 3 -9 11 -24
23 -32 26 -8 3 6 3 33 0 53 -6 63 9 27 42 -24 22 -39 13 -19 -11 13 -16 12
-17 -11 -10 -14 4 -48 9 -76 13 -49 5 -52 4 -76 -28 -14 -19 -29 -44 -33 -56
-7 -26 -33 -31 -41 -9 -3 8 -19 18 -35 21 -42 10 -44 20 -9 73 l30 47 -29 -34
c-16 -18 -35 -31 -43 -28 -14 5 -63 -17 -90 -41 -16 -13 -18 -13 -18 0 0 8 7
23 15 34 8 10 14 24 15 29 0 6 -5 3 -10 -5 -7 -11 -10 -6 -10 21 0 42 -16 60
-84 89 -56 24 -86 22 -41 -3 17 -9 24 -16 16 -17 -8 0 -4 -8 10 -20 21 -17 22
-19 6 -20 -10 0 -31 -7 -46 -15 l-29 -14 -10 50 -10 51 37 15 c81 34 206 41
314 17z m-212 -81 c24 -14 29 -24 29 -54 0 -51 -9 -69 -33 -69 -11 0 -29 -8
-39 -17 -16 -14 -24 -15 -52 -5 -29 11 -40 9 -112 -22 -81 -35 -113 -59 -150
-110 l-20 -30 -32 24 c-40 30 -47 52 -27 87 l16 28 -6 -32 c-4 -18 -4 -33 0
-33 3 0 25 13 49 29 51 35 268 144 322 161 54 17 59 25 33 44 -31 21 -15 21
22 -1z m-266 -87 c8 -23 7 -31 -5 -38 -8 -5 -42 -24 -74 -43 -32 -20 -60 -34
-62 -32 -9 9 27 84 50 104 14 12 26 25 26 28 0 9 -49 5 -55 -5 -3 -5 -1 -10 6
-10 6 0 2 -8 -9 -17 -32 -28 -82 -104 -82 -124 0 -11 16 -37 35 -58 l36 -39
-25 -19 c-13 -10 -32 -23 -42 -30 -17 -10 -14 -12 18 -12 37 -1 37 -1 26 -28
-7 -16 -13 -29 -14 -31 -1 -3 -102 61 -158 101 -16 11 -42 20 -57 21 l-27 1
21 35 c11 19 29 43 39 54 11 10 17 21 13 24 -17 17 -125 -143 -125 -185 0 -13
-5 -23 -11 -23 -31 0 36 129 108 209 23 26 59 60 81 75 60 41 168 76 227 74
45 -3 51 -6 60 -32z m640 -16 c-3 -5 13 -19 35 -30 48 -25 183 -151 237 -221
20 -27 43 -49 49 -49 16 0 29 -39 17 -51 -11 -11 -158 -33 -176 -26 -8 3 -17
19 -20 35 -3 16 -19 43 -35 59 -16 16 -37 43 -46 61 -9 18 -30 41 -45 50 -15
9 -44 32 -65 49 l-36 33 15 37 c8 20 20 42 26 50 13 15 53 18 44 3z m-231 -32
c3 -13 -2 -42 -11 -66 -12 -32 -13 -46 -5 -54 9 -9 12 -7 12 9 0 11 5 34 11
52 9 24 16 31 33 29 16 -2 22 -12 27 -43 5 -30 7 -33 8 -12 1 31 8 33 54 13
45 -19 63 -42 82 -111 10 -33 22 -64 27 -70 7 -7 8 -3 5 10 -3 11 -9 38 -12
60 l-6 40 30 -32 c17 -18 33 -49 37 -70 4 -21 13 -49 21 -63 14 -24 14 -24 8
13 -3 20 -3 37 0 37 3 0 21 -34 41 -75 28 -59 41 -76 62 -82 l27 -6 -28 -10
c-26 -8 -32 -6 -57 24 -16 19 -29 29 -30 23 0 -6 7 -17 16 -25 16 -13 16 -38
-3 -154 l-8 -50 -19 28 c-11 16 -22 56 -26 90 l-6 62 -12 -42 c-15 -49 -52
-98 -93 -118 -15 -8 -30 -15 -33 -15 -2 0 11 30 31 68 38 72 37 68 17 240 -8
63 -24 79 -24 23 0 -46 -15 -91 -30 -91 -5 0 -10 21 -10 46 0 26 -12 82 -26
126 -27 80 -45 103 -25 31 14 -48 14 -88 0 -135 -11 -43 -24 -49 -32 -15 -4
12 -13 31 -21 42 -13 18 -14 16 -9 -25 5 -46 -11 -130 -26 -130 -4 0 -13 18
-20 40 -6 22 -32 63 -56 90 -25 28 -47 63 -51 78 -3 15 -9 38 -13 52 -7 23 -8
22 -15 -15 -11 -61 -37 -125 -51 -125 -24 0 -37 29 -31 67 7 38 7 38 -11 16
-10 -13 -34 -25 -53 -29 l-35 -6 33 22 c17 12 32 29 32 37 0 10 -10 6 -34 -15
-19 -17 -44 -33 -55 -37 -22 -7 -28 -21 -11 -27 7 -2 6 -16 -4 -38 -8 -19 -15
-29 -16 -22 0 6 -5 12 -11 12 -8 0 -10 -12 -6 -32 9 -56 11 -61 37 -85 l25
-24 -40 16 c-22 9 -50 26 -62 37 -13 12 -23 19 -23 16 0 -4 32 -39 71 -80 85
-87 109 -123 109 -162 0 -32 -48 -116 -67 -116 -15 0 -33 -54 -33 -99 l0 -36
-25 30 c-31 39 -40 84 -28 146 14 67 -1 62 -16 -6 -17 -74 -8 -104 48 -178 67
-87 74 -103 67 -148 -7 -45 -26 -89 -38 -89 -4 0 -8 19 -8 43 0 50 -27 113
-72 169 -27 35 -33 52 -38 112 -5 63 -7 67 -14 38 -7 -31 -3 -78 11 -127 6
-20 5 -20 -16 -1 -23 21 -27 16 -11 -15 17 -30 -5 -24 -46 14 -48 44 -56 102
-22 166 13 24 28 42 33 40 6 -2 9 -30 8 -62 -2 -36 1 -56 7 -52 6 3 11 0 11
-7 2 -15 17 80 25 160 6 52 5 53 -36 91 -37 34 -43 46 -48 89 -2 28 -1 64 3
79 7 27 8 26 22 -22 16 -53 56 -115 75 -115 6 0 2 10 -10 23 -32 33 -52 90
-52 144 0 55 32 133 53 133 14 0 69 39 56 40 -4 0 -26 -7 -50 -15 l-44 -16 36
38 c20 21 44 52 52 69 16 31 67 61 85 50 5 -3 27 8 48 24 40 30 68 36 94 20
12 -7 12 -12 2 -22 -6 -6 -12 -17 -12 -22 0 -6 20 9 44 33 38 38 46 42 65 32
17 -10 19 -16 11 -31 -22 -41 -8 -37 38 10 53 55 76 62 86 28z m539 -145 c-8
-3 -8 -14 -3 -34 7 -22 5 -29 -5 -29 -14 0 -52 47 -44 54 16 13 45 23 53 18 6
-3 6 -7 -1 -9z m1524 -28 c20 -8 34 -17 32 -19 -2 -2 -40 -13 -83 -25 -81 -22
-205 -76 -241 -104 -11 -9 25 4 80 28 116 51 253 90 287 82 13 -4 42 -21 66
-39 l42 -32 -106 -18 c-103 -17 -160 -35 -364 -112 -206 -79 -287 -118 -417
-204 -27 -17 -31 -1 -7 23 15 15 15 17 -5 22 -20 5 -20 6 9 40 16 18 30 36 30
38 0 12 -15 1 -66 -47 -51 -48 -56 -50 -71 -35 -16 15 -11 22 68 99 52 51 113
99 159 125 105 59 123 62 67 13 -49 -43 -83 -95 -69 -104 5 -3 36 17 70 44
133 108 214 154 357 206 104 38 113 39 162 19z m-1449 -188 l5 -90 -33 6 c-18
4 -51 7 -73 7 -32 0 -38 3 -29 12 19 19 14 37 -8 31 -23 -6 -70 4 -70 15 0 4
34 13 76 20 42 6 83 17 90 23 18 15 18 61 -1 106 -25 60 -15 72 12 14 19 -41
27 -76 31 -144z m-1332 117 c28 -13 69 -37 92 -54 l41 -29 -20 -47 c-19 -43
-23 -105 -8 -154 3 -12 -5 -14 -42 -12 -28 2 -50 -1 -54 -8 -5 -8 3 -9 29 -5
25 5 36 4 36 -5 0 -8 9 -11 25 -8 35 7 43 -11 15 -34 -26 -21 -41 -23 -34 -5
3 10 -4 12 -30 9 -28 -3 -37 1 -51 22 -9 14 -14 30 -10 36 9 15 -39 12 -135
-9 -55 -12 -89 -16 -95 -10 -17 17 -7 97 19 156 15 31 47 79 73 106 33 35 42
51 33 57 -9 6 -8 10 6 18 22 13 41 9 110 -24z m616 -50 c53 -57 81 -107 80
-145 0 -16 1 -29 2 -29 7 0 54 78 59 96 2 10 2 -1 0 -26 -3 -25 -8 -52 -13
-60 -12 -24 -1 -39 42 -61 35 -18 42 -19 56 -6 10 8 23 12 30 10 8 -3 10 1 6
11 -5 12 -2 15 10 10 22 -9 21 -15 -19 -74 -40 -59 -40 -60 -20 -60 25 0 17
-24 -22 -69 -48 -57 -151 -131 -180 -131 -28 0 -138 52 -179 85 -26 21 -29 29
-29 82 0 51 -5 66 -37 113 -34 52 -35 55 -16 63 16 6 18 10 9 21 -9 11 -9 16
0 22 7 4 19 -2 29 -14 15 -18 25 -21 69 -15 l51 6 0 39 c0 46 23 49 28 5 2
-15 8 -25 13 -21 5 3 7 21 3 40 -6 32 -5 34 20 34 16 0 25 4 21 10 -4 6 -10 8
-14 6 -4 -3 -20 5 -35 18 -24 19 -27 27 -21 54 3 18 8 32 11 32 2 0 23 -21 46
-46z m226 -39 c-2 -30 -8 -41 -22 -43 -15 -3 -17 0 -11 14 4 11 10 41 13 69 4
43 6 46 14 25 5 -13 8 -42 6 -65z m-380 47 c2 -8 -6 -10 -27 -6 -40 8 -40 -2
2 -21 20 -9 24 -14 12 -13 -11 1 -34 -6 -52 -15 -43 -23 -46 -22 -38 10 9 38
22 51 53 56 36 5 45 3 50 -11z m2342 -72 c18 -6 7 -8 -40 -8 -47 0 -58 2 -40
8 14 4 32 8 40 8 8 0 26 -4 40 -8z m-2420 -30 c0 -5 -7 -10 -15 -10 -8 0 -15
5 -15 10 0 6 7 10 15 10 8 0 15 -4 15 -10z m66 -19 c-14 -15 -13 -18 5 -29 22
-14 39 -8 39 14 0 8 5 14 11 14 6 0 9 -10 7 -22 -2 -18 -11 -24 -35 -26 -27
-3 -35 1 -44 22 -9 20 -9 29 1 41 7 8 17 12 22 9 5 -3 3 -13 -6 -23z m462 -24
l3 -32 -22 22 c-13 12 -19 28 -16 37 10 25 33 8 35 -27z m2127 8 l40 -35 -90
-1 -90 -2 107 -11 108 -11 60 -59 c33 -33 58 -61 56 -63 -1 -2 -61 4 -132 12
-71 8 -169 15 -219 15 -100 0 -257 -17 -289 -31 -16 -7 -11 -8 19 -4 22 2 113
7 202 11 l163 7 32 -35 c18 -19 40 -38 48 -41 8 -3 -39 -6 -105 -6 -66 0 -241
-4 -390 -9 -148 -5 -272 -8 -274 -6 -2 2 5 4 17 4 11 0 33 11 48 25 15 14 37
25 50 25 12 0 26 5 29 10 4 7 -2 9 -17 6 -12 -3 -40 -8 -61 -11 -20 -3 -78
-19 -127 -35 -104 -35 -111 -36 -103 -12 6 15 4 15 -15 -2 -27 -23 -35 -17
-27 17 9 33 10 34 135 102 142 78 224 112 355 145 97 25 128 28 270 29 l160 0
40 -34z m-2655 -5 c-8 -5 -17 -7 -19 -4 -3 3 1 9 9 14 8 5 17 7 19 4 3 -3 -1
-9 -9 -14z m428 -34 c5 -37 -10 -51 -37 -37 -25 14 -27 28 -4 53 22 24 37 18
41 -16z m50 2 c2 -8 -7 -26 -18 -39 l-21 -24 7 25 c4 14 7 33 6 43 -1 22 22
17 26 -5z m421 -4 c70 -9 94 -31 85 -82 -9 -51 -42 -130 -72 -170 -22 -31 -28
-33 -60 -27 -61 11 -136 43 -173 75 -40 32 -83 105 -73 122 3 5 14 -8 24 -30
16 -35 44 -62 65 -62 4 0 4 14 0 31 -4 18 0 53 11 88 l17 58 61 2 c34 1 85 -1
115 -5z m-374 -14 c3 -5 2 -10 -4 -10 -5 0 -13 5 -16 10 -3 6 -2 10 4 10 5 0
13 -4 16 -10z m-932 -112 c6 -45 5 -48 -23 -63 -25 -13 -34 -14 -49 -3 -33 24
-93 79 -89 83 3 3 152 33 154 31 1 -1 4 -22 7 -48z m1980 -10 c57 -76 62 -94
59 -232 -2 -142 -5 -161 -29 -170 -22 -9 -28 0 -13 19 7 8 9 15 4 15 -5 0 0 7
10 15 19 14 19 15 -6 15 -15 0 -30 5 -33 10 -3 6 0 10 8 10 8 0 17 7 21 15 3
8 0 15 -7 15 -14 0 -17 38 -4 58 6 8 1 12 -17 12 -19 0 -26 -5 -26 -20 0 -12
-7 -20 -17 -21 -11 0 -13 -3 -5 -6 6 -2 12 -13 12 -23 0 -25 -27 -51 -45 -44
-19 8 -19 -10 0 -26 17 -14 21 -35 5 -25 -5 3 -10 0 -10 -7 0 -8 -8 -5 -20 8
-19 19 -20 22 -4 53 18 36 21 118 8 194 -7 36 -15 52 -33 61 -15 9 -20 16 -12
20 6 4 11 12 11 17 0 6 -5 7 -12 3 -8 -5 -9 -2 -5 10 4 10 7 22 7 27 0 15 40
28 87 28 36 1 45 -4 66 -31z m-957 -29 c8 -16 14 -45 14 -66 0 -33 -7 -46 -45
-83 -40 -39 -45 -42 -45 -22 0 26 -20 30 -20 5 -1 -17 -1 -17 -14 -1 -9 13
-10 30 -4 65 4 26 10 64 13 83 3 25 13 40 33 51 31 18 45 11 68 -32z m-828 29
c9 -9 8 -16 -6 -32 -16 -20 -16 -20 2 -6 16 13 19 13 15 1 -8 -23 -76 -54
-103 -47 -25 6 -91 65 -82 73 2 3 13 0 24 -6 33 -18 87 -13 107 9 21 23 27 24
43 8z m1355 -28 c6 -23 -41 -180 -54 -180 -11 0 -11 -2 0 80 14 102 40 152 54
100z m-1450 -78 l27 -7 -20 -33 c-18 -29 -24 -32 -70 -32 -55 0 -130 26 -130
45 0 16 26 38 75 63 l40 20 26 -24 c14 -14 38 -28 52 -32z m3032 38 c3 -5 2
-10 -4 -10 -5 0 -13 5 -16 10 -3 6 -2 10 4 10 5 0 13 -4 16 -10z m-2242 -47
c-7 -42 -23 -60 -36 -37 -5 9 0 24 15 44 13 16 24 29 25 29 1 1 -1 -16 -4 -36z
m242 -8 l60 -29 -48 -15 c-48 -15 -49 -15 -68 9 -18 24 -27 76 -11 68 4 -2 34
-17 67 -33z m510 19 c13 -8 34 -14 47 -13 35 5 88 -20 88 -42 0 -11 -4 -19
-10 -19 -5 0 -9 4 -7 9 1 5 -2 11 -7 13 -6 1 -15 -27 -21 -63 -10 -62 -26 -98
-57 -130 -8 -8 -17 -22 -21 -31 -7 -20 -27 -25 -27 -7 0 6 13 43 29 82 42 102
57 227 17 135 l-14 -33 -1 40 c-2 73 -24 9 -59 -168 -8 -42 -28 -47 -26 -7 1
14 4 72 6 129 4 73 9 106 19 112 18 11 16 12 44 -7z m203 -36 c2 -26 -4 -62
-12 -83 -9 -21 -16 -46 -16 -56 0 -11 -4 -19 -10 -19 -10 0 -13 187 -3 202 2
5 12 8 21 6 12 -2 18 -16 20 -50z m219 20 c-3 -8 -6 -5 -6 6 -1 11 2 17 5 13
3 -3 4 -12 1 -19z m1144 10 c17 -14 59 -84 59 -97 0 -5 -44 -7 -97 -5 l-98 3
97 -12 c98 -12 140 -27 77 -27 -26 0 -30 -3 -19 -10 8 -5 25 -10 38 -10 23 0
23 0 26 -87 l1 -26 -195 2 c-107 1 -269 9 -360 17 -91 9 -199 17 -240 19 -41
2 -99 8 -129 14 -65 13 -64 13 -56 1 3 -5 -2 -10 -12 -10 -13 -1 -10 -5 10
-16 30 -16 53 -10 27 6 -24 15 -1 12 94 -15 85 -23 118 -25 86 -5 -29 19 20
11 124 -20 55 -16 135 -34 176 -41 41 -6 79 -16 84 -20 6 -5 0 -20 -15 -36
l-24 -28 31 28 c17 15 42 28 55 28 13 0 36 -1 52 -1 15 0 27 -2 27 -6 0 -3
-20 -26 -44 -50 l-44 -43 -74 6 c-189 14 -291 32 -422 73 l-137 44 -15 -23
c-18 -25 -26 -24 -116 16 -32 14 -58 29 -58 34 0 4 9 24 21 43 18 31 26 36 57
36 l37 1 -28 15 c-15 8 -31 13 -36 10 -4 -3 -30 3 -57 13 -35 13 -50 25 -52
40 -3 20 0 21 125 22 153 1 150 5 -9 14 -108 6 -118 9 -118 26 0 25 29 36 149
55 186 29 973 46 1002 22z m-2141 -70 c0 -6 -7 -5 -15 2 -8 7 -15 17 -15 22 0
6 7 5 15 -2 8 -7 15 -17 15 -22z m-14 -29 c13 -25 13 -36 4 -60 -13 -30 -92
-109 -110 -109 -5 0 -13 0 -17 0 -4 0 -8 7 -9 16 -1 9 -5 18 -8 21 -6 7 -26
-41 -26 -64 0 -11 -6 -8 -20 10 -30 38 -26 92 8 126 34 35 61 31 37 -6 -9 -13
-15 -32 -13 -41 3 -12 9 -7 22 18 19 36 94 120 108 120 4 0 15 -14 24 -31z
m-1455 -14 c4 -16 7 -70 8 -118 1 -66 -2 -88 -11 -85 -13 5 -22 39 -33 121 -9
69 -24 58 -18 -13 6 -66 -5 -78 -33 -35 -14 22 -14 26 0 47 9 12 16 32 16 45
0 12 5 34 10 48 14 37 52 31 61 -10z m975 -31 c23 -18 62 -44 87 -57 l46 -25
-28 -25 c-16 -14 -31 -31 -34 -39 -5 -10 -9 -9 -20 5 -8 9 -18 17 -22 17 -4 0
-34 12 -66 26 l-59 27 0 70 0 69 28 -17 c15 -10 46 -33 68 -51z m294 46 c0 -5
-4 -12 -10 -15 -5 -3 -10 -4 -10 -1 0 2 -3 12 -6 20 -5 12 -2 15 10 10 9 -3
16 -10 16 -14z m-1162 -2 c28 -28 5 -128 -30 -128 -14 0 -18 8 -18 35 0 41
-19 48 -21 8 -1 -18 -3 -21 -6 -10 -2 9 3 38 13 62 17 46 38 57 62 33z m402
-33 c0 -25 -41 -55 -77 -55 -13 0 -7 10 22 40 45 47 55 49 55 15z m682 -10 c4
-31 1 -35 -19 -35 -14 0 -23 6 -23 16 0 9 5 12 12 8 8 -5 9 -2 5 10 -4 10 -5
22 -1 27 11 19 22 8 26 -26z m988 -22 c0 -27 -4 -33 -21 -33 -15 0 -19 5 -15
18 3 9 8 30 12 45 8 36 24 17 24 -30z m-948 15 c-7 -7 -12 -28 -12 -47 -1 -30
-2 -33 -11 -18 -14 24 12 99 29 82 3 -3 0 -11 -6 -17z m1025 -10 c-3 -8 -6 -5
-6 6 -1 11 2 17 5 13 3 -3 4 -12 1 -19z m-2431 -176 c20 -40 34 -75 31 -79
-11 -10 -56 26 -81 66 -14 21 -35 47 -49 57 -32 26 -41 63 -20 87 16 17 18 17
50 -20 18 -21 49 -71 69 -111z m60 107 c14 -23 30 -54 34 -68 13 -39 20 -131
11 -131 -4 0 -16 19 -27 42 -28 63 -73 130 -83 124 -5 -3 -15 1 -22 10 -11 14
-9 20 14 40 16 13 32 24 37 24 6 0 22 -19 36 -41z m641 9 c-3 -7 -5 -2 -5 12
0 14 2 19 5 13 2 -7 2 -19 0 -25z m1953 13 c0 -11 -4 -23 -10 -26 -6 -4 -10 5
-10 19 0 14 5 26 10 26 6 0 10 -9 10 -19z m-1456 -114 c9 -15 7 -21 -9 -33
-19 -14 -19 -16 -2 -97 9 -45 17 -88 17 -94 0 -9 -19 -13 -64 -13 -52 0 -65 3
-69 18 -3 9 -15 41 -26 70 -24 61 -21 66 9 17 12 -19 27 -35 34 -35 13 0 86
144 86 170 0 25 -21 -5 -51 -72 -15 -34 -32 -64 -36 -65 -5 -2 -17 11 -26 29
-9 18 -33 60 -52 93 -38 66 -42 80 -20 71 19 -7 19 3 -1 25 -9 10 -13 23 -9
28 8 14 203 -86 219 -112z m175 92 l23 -31 -17 -67 c-10 -36 -21 -72 -24 -79
-5 -8 -23 12 -50 55 -24 38 -46 62 -48 55 -3 -7 2 -23 11 -35 9 -12 30 -43 47
-69 34 -53 46 -58 58 -26 10 28 17 15 26 -48 8 -59 10 -58 -106 -70 l-66 -6
-16 83 c-15 78 -15 85 1 97 9 7 16 20 14 28 -2 9 4 26 12 39 17 26 97 104 107
105 3 0 16 -14 28 -31z m1349 13 c-1 -4 -19 -29 -38 -54 -33 -45 -50 -58 -50
-40 0 13 72 102 82 102 5 0 8 -3 6 -8z m-1983 -12 c3 -5 -1 -10 -9 -10 -9 0
-16 5 -16 10 0 6 4 10 9 10 6 0 13 -4 16 -10z m1590 -26 c-9 -14 -30 -33 -47
-42 -16 -10 -37 -23 -46 -30 -15 -12 -15 -13 5 -9 20 4 22 0 29 -102 15 -191
10 -407 -12 -485 -18 -64 -22 -70 -57 -83 l-37 -15 -83 55 c-45 30 -133 83
-195 118 -62 34 -109 65 -103 68 10 7 81 134 81 146 0 3 -5 3 -10 0 -13 -8
-40 13 -40 31 0 20 13 18 76 -11 30 -14 58 -25 63 -25 22 0 52 -54 71 -130 12
-47 24 -87 27 -90 3 -3 2 36 -2 87 -5 72 -2 120 15 230 12 76 27 157 32 181
10 41 12 42 50 42 24 0 37 4 33 10 -10 17 -193 1 -244 -21 -24 -11 -46 -18
-48 -16 -2 2 6 16 18 31 23 29 68 56 96 56 10 0 31 7 47 15 15 8 41 15 57 15
24 0 29 -4 29 -25 0 -20 5 -25 25 -25 14 0 25 -4 25 -9 0 -21 35 -22 52 -1 17
21 99 70 107 64 2 -2 -4 -15 -14 -30z m-2065 -9 c0 -26 -14 -33 -25 -15 -9 14
1 40 15 40 5 0 10 -11 10 -25z m1651 -11 c-44 -37 -57 -63 -39 -80 12 -13 20
-12 59 5 24 12 65 21 90 21 l46 0 -4 -32 c-5 -42 -33 -225 -39 -260 -5 -25 -7
-26 -35 -16 -37 13 -43 22 -27 47 11 18 10 24 -9 42 l-22 22 20 39 c16 31 17
41 7 58 -17 26 -23 25 -69 -11 -22 -17 -46 -29 -54 -25 -8 3 -26 29 -41 58
-15 29 -42 72 -62 95 -40 50 -39 51 73 56 44 2 93 4 108 5 l29 2 -31 -26z
m-1064 -10 c30 -11 43 -22 48 -41 8 -32 2 -38 -23 -24 -40 21 -46 10 -7 -12
36 -20 40 -27 41 -62 0 -22 3 -47 7 -55 29 -76 28 -82 -3 -121 -29 -37 -42
-65 -18 -41 18 18 28 15 28 -8 0 -24 -77 -181 -94 -192 -20 -13 -64 -8 -118
13 -62 24 -60 22 -53 40 4 10 21 13 58 12 53 -2 50 1 -13 11 -33 6 -36 9 -48
58 -13 57 -39 96 -28 43 3 -16 9 -54 13 -83 5 -48 4 -54 -15 -59 -13 -3 -33
-29 -54 -69 -18 -35 -36 -64 -41 -64 -4 0 0 11 9 25 17 25 16 27 -20 59 -44
41 -48 76 -10 101 22 14 28 15 36 4 6 -9 8 6 5 44 -2 32 -8 62 -14 68 -15 15
-48 3 -60 -23 -9 -20 -10 -20 -46 12 -40 35 -45 55 -22 86 21 27 18 51 -7 68
-17 12 -18 16 -7 16 41 0 79 -24 103 -65 14 -23 34 -45 44 -47 17 -5 41 -45
56 -94 10 -32 -34 -89 -66 -87 -32 2 -40 -16 -24 -48 12 -24 56 -40 56 -20 0
6 -6 11 -13 11 -7 0 -18 9 -25 20 -15 24 0 27 22 4 10 -10 16 -11 16 -4 0 7
11 25 25 42 45 53 26 141 -41 196 -18 15 -37 40 -43 55 l-11 27 25 -16 c28
-18 34 -8 8 12 -16 12 -17 15 -3 38 33 55 137 160 175 177 43 20 81 18 152 -7z
m751 -21 c4 -51 -52 -203 -74 -203 -20 0 -88 67 -106 105 -11 22 -13 39 -6 65
9 33 11 34 24 15 8 -10 14 -37 15 -59 l1 -41 9 38 c11 48 28 72 71 103 46 33
62 27 66 -23z m-1070 15 c-4 -28 -47 -34 -64 -9 -15 20 -1 31 39 31 24 0 28
-4 25 -22z m1185 -30 c19 -29 45 -72 57 -96 21 -41 22 -44 5 -62 -17 -19 -18
-19 -49 12 -17 18 -30 35 -29 40 3 8 -56 42 -62 36 -2 -2 14 -24 35 -50 l40
-46 -68 5 c-37 3 -68 7 -70 8 -2 2 8 30 22 64 14 33 26 79 26 101 0 38 2 40
29 40 24 0 35 -9 64 -52z m1670 35 c-7 -2 -19 -2 -25 0 -7 3 -2 5 12 5 14 0
19 -2 13 -5z m170 -3 c42 0 77 -4 77 -9 0 -12 -71 -25 -79 -14 -3 5 -24 9 -46
9 -84 1 -105 4 -105 15 0 8 13 10 38 5 20 -3 72 -6 115 -6z m149 -17 c-13 -9
-37 -18 -54 -20 -31 -3 -31 -3 -13 17 12 13 30 20 54 19 l36 0 -23 -16z m98 6
c0 -5 -4 -8 -9 -5 -5 4 -21 2 -35 -4 -24 -9 -35 -2 -19 13 11 11 63 8 63 -4z
m-3660 -31 c0 -5 -4 -8 -10 -8 -5 0 -10 10 -10 23 0 18 2 19 10 7 5 -8 10 -18
10 -22z m90 23 c0 -6 -4 -13 -10 -16 -5 -3 -10 1 -10 9 0 9 5 16 10 16 6 0 10
-4 10 -9z m2357 -16 c-7 -16 -47 -22 -47 -7 0 9 42 32 49 26 2 -2 1 -10 -2
-19z m-2132 5 c-3 -5 -1 -10 4 -10 6 0 11 -7 11 -15 0 -8 -7 -15 -15 -15 -9 0
-12 6 -8 18 5 13 -1 11 -23 -8 l-29 -25 29 33 c29 31 43 42 31 22z m-1739 -27
c8 -3 14 0 14 6 0 6 7 11 15 11 12 0 14 -4 6 -17 -7 -13 -4 -25 10 -45 22 -30
47 -143 35 -155 -21 -22 -157 94 -183 156 -14 32 -13 36 4 49 17 12 59 10 99
-5z m1792 5 c-2 -6 -10 -14 -16 -16 -7 -2 -10 2 -6 12 7 18 28 22 22 4z m2226
-3 c11 -8 15 -15 10 -15 -6 0 -19 7 -30 15 -10 8 -14 14 -9 14 6 0 19 -6 29
-14z m-3831 -16 c-8 -8 -16 -8 -30 0 -16 9 -14 10 12 11 21 0 26 -3 18 -11z
m67 -4 c-7 -9 -15 -13 -17 -11 -7 7 7 26 19 26 6 0 6 -6 -2 -15z m434 -27
c-16 -19 -36 -44 -45 -57 -8 -13 -20 -22 -27 -20 -7 2 10 28 40 61 54 60 82
74 32 16z m91 6 c-13 -19 -27 -44 -30 -55 -4 -12 -15 -19 -31 -19 -24 0 -23 3
23 55 55 62 74 72 38 19z m4205 21 c5 3 11 1 14 -4 3 -5 -10 -11 -29 -13 -19
-2 -35 -2 -35 0 0 11 35 30 38 21 2 -5 8 -7 12 -4z m-4420 -14 c-11 -21 -30
-37 -30 -25 0 8 30 44 37 44 2 0 -1 -9 -7 -19z m34 -6 c-9 -14 -18 -25 -21
-25 -5 0 5 18 20 38 17 22 18 13 1 -13z m4446 21 c0 -3 -4 -8 -10 -11 -5 -3
-10 -1 -10 4 0 6 5 11 10 11 6 0 10 -2 10 -4z m-3570 -16 c0 -5 -5 -10 -11
-10 -5 0 -7 5 -4 10 3 6 8 10 11 10 2 0 4 -4 4 -10z m2515 0 c-3 -5 -11 -10
-16 -10 -6 0 -7 5 -4 10 3 6 11 10 16 10 6 0 7 -4 4 -10z m241 -5 c10 -8 27
-15 37 -15 9 0 17 -7 17 -16 0 -18 -39 -13 -100 13 -32 14 -33 16 -15 23 29
12 39 12 61 -5z m-4133 -15 c-6 -23 -19 -26 -26 -6 -5 13 5 23 25 25 3 1 4 -8
1 -19z m1588 4 c35 -17 34 -38 -2 -40 -13 -1 -39 -2 -58 -3 -28 -1 -45 -11
-83 -51 -44 -46 -52 -50 -96 -50 -46 -1 -47 -1 -21 -15 16 -9 29 -26 32 -45 4
-17 25 -70 48 -118 23 -48 48 -117 57 -154 9 -38 19 -68 22 -68 4 0 4 27 2 59
-5 66 6 89 80 167 38 39 42 41 70 30 20 -7 32 -8 35 -1 16 46 43 41 43 -8 0
-26 -6 -35 -33 -47 -39 -18 -44 -43 -18 -94 l20 -39 -37 -51 c-20 -27 -66 -97
-102 -155 -70 -113 -89 -127 -134 -97 -34 22 -99 123 -136 213 -40 96 -109
341 -114 404 -2 25 -8 54 -14 64 -8 16 -5 21 16 32 14 7 33 11 43 8 11 -4 23
2 33 16 13 20 16 20 22 6 3 -9 12 -17 20 -17 8 0 14 -5 14 -12 0 -6 12 0 28
14 28 27 58 38 112 42 16 1 36 8 42 14 17 17 73 15 109 -4z m139 9 c0 -5 -9
-19 -20 -33 -11 -14 -20 -31 -20 -37 0 -13 -51 -18 -63 -6 -4 3 -2 13 5 20 9
11 9 19 0 33 -9 14 -8 20 1 23 20 8 97 8 97 0z m2275 -11 c-3 -3 -11 0 -18 7
-9 10 -8 11 6 5 10 -3 15 -9 12 -12z m-3937 -4 c-7 -19 -38 -22 -38 -4 0 10 9
16 21 16 12 0 19 -5 17 -12z m643 -5 c-20 -37 -40 -58 -47 -50 -4 4 5 21 21
37 33 34 40 38 26 13z m3229 12 c0 -4 -7 -20 -16 -37 -11 -20 -19 -27 -26 -20
-7 7 -4 18 7 36 16 23 35 35 35 21z m-3341 -40 c-12 -19 -25 -35 -31 -35 -11
0 -2 17 25 48 28 31 30 28 6 -13z m134 5 c-3 -11 -12 -20 -21 -20 -13 0 -12 3
3 20 10 11 19 20 21 20 1 0 0 -9 -3 -20z m3069 -2 c-7 -7 -12 -8 -12 -2 0 14
12 26 19 19 2 -3 -1 -11 -7 -17z m178 4 c-1 -17 -19 -34 -29 -28 -8 5 -8 13
-1 27 10 18 30 18 30 1z m-3500 3 c0 -16 -26 -55 -37 -55 -17 0 -17 6 5 35 15
22 32 32 32 20z m272 -17 c-7 -7 -12 -8 -12 -2 0 6 3 14 7 17 3 4 9 5 12 2 2
-3 -1 -11 -7 -17z m3354 6 c18 -14 18 -14 -6 -3 -31 14 -36 19 -24 19 6 0 19
-7 30 -16z m-3836 -33 c-22 -32 -54 -43 -44 -16 4 8 11 15 18 15 6 0 17 9 24
21 7 12 16 19 19 16 3 -3 -5 -20 -17 -36z m45 9 c-9 -16 -20 -30 -26 -30 -6 0
-1 14 11 30 12 17 23 30 26 30 2 0 -2 -13 -11 -30z m115 24 c0 -3 -5 -14 -10
-25 -16 -28 -32 -23 -18 6 10 22 28 35 28 19z m2706 -8 c3 -7 -5 -30 -17 -51
l-22 -37 23 -18 c19 -14 21 -20 11 -38 -14 -26 -21 -27 -46 -8 -17 13 -17 15
8 80 16 42 21 63 12 56 -8 -6 -21 -34 -30 -61 -12 -36 -22 -49 -36 -49 -36 0
-21 51 30 97 50 46 59 50 67 29z m-2972 -40 c-10 -20 -21 -36 -26 -36 -12 0
-10 10 13 47 27 44 35 37 13 -11z m339 29 c-3 -9 -8 -14 -10 -11 -3 3 -2 9 2
15 9 16 15 13 8 -4z m3540 3 c16 -12 16 -15 -5 -45 -25 -35 -40 -40 -55 -20
-13 15 11 77 30 77 7 0 21 -6 30 -12z m237 2 c18 -12 2 -12 -25 0 -13 6 -15 9
-5 9 8 0 22 -4 30 -9z m-110 -10 c13 -9 13 -10 0 -10 -8 0 -22 5 -30 10 -13 9
-13 10 0 10 8 0 22 -5 30 -10z m285 1 c10 -17 -9 -19 -40 -6 l-30 13 32 1 c17
1 34 -3 38 -8z m-4428 -7 c-3 -3 -12 -4 -19 -1 -8 3 -5 6 6 6 11 1 17 -2 13
-5z m1489 -10 c-19 -18 -19 -16 -7 -48 8 -21 6 -27 -15 -40 -33 -23 -30 -55
10 -108 l35 -45 -34 -33 c-19 -19 -36 -32 -38 -29 -27 34 -97 190 -97 216 0 1
8 3 18 3 10 0 40 23 67 50 27 28 55 50 63 50 10 0 10 -4 -2 -16z m3404 13 c0
-2 -12 -14 -27 -28 l-26 -24 19 27 c16 23 34 36 34 25z m-3369 -16 c-11 -7 -9
-14 14 -33 28 -24 28 -24 9 -52 -17 -27 -17 -30 -1 -58 13 -23 14 -33 4 -48
-18 -29 -30 -25 -60 21 -26 40 -35 65 -19 55 4 -2 16 2 26 10 17 12 18 18 8
51 -12 38 -3 63 22 63 6 0 5 -4 -3 -9z m2549 -1 c9 -6 10 -10 3 -10 -6 0 -20
-13 -30 -30 -9 -16 -23 -30 -30 -30 -17 0 -16 2 4 45 17 36 28 41 53 25z m140
2 c0 -14 -11 -21 -26 -15 -21 8 -17 23 6 23 11 0 20 -4 20 -8z m360 4 c0 -3
-4 -8 -10 -11 -5 -3 -10 -1 -10 4 0 6 5 11 10 11 6 0 10 -2 10 -4z m-4419 -29
c-10 -9 -11 -8 -5 6 3 10 9 15 12 12 3 -3 0 -11 -7 -18z m2829 3 c0 -5 -13
-15 -30 -24 -35 -17 -38 -11 -9 21 21 21 39 23 39 3z m1260 11 c0 -5 11 -8 24
-7 16 2 26 -3 29 -13 3 -11 -2 -17 -14 -18 -11 -1 -19 2 -19 8 0 5 -3 8 -7 8
-27 -4 -42 3 -37 16 7 16 24 21 24 6z m-1368 -23 c19 -9 28 -22 32 -47 6 -41
2 -48 -19 -31 -23 19 -18 1 10 -32 19 -23 25 -41 25 -79 0 -27 -4 -49 -8 -49
-5 0 -19 22 -32 49 -12 27 -47 73 -77 103 -51 50 -52 53 -31 59 23 6 23 6 -4
17 -16 6 -28 17 -28 23 0 14 90 5 132 -13z m1243 13 c3 -5 1 -12 -5 -16 -5 -3
-10 -11 -10 -17 0 -6 8 -4 19 6 15 13 24 14 46 6 22 -9 25 -13 15 -25 -7 -8
-16 -12 -21 -9 -5 3 -14 -7 -21 -21 -10 -23 -16 -26 -42 -21 -39 8 -40 10 -21
43 l17 28 -21 -23 c-34 -39 -44 -20 -10 21 31 38 43 44 54 28z m240 -9 c15
-11 15 -42 0 -42 -32 0 -45 12 -34 31 10 20 18 23 34 11z m-4295 -6 c0 -2 -7
-7 -16 -10 -8 -3 -12 -2 -9 4 6 10 25 14 25 6z m2670 -16 c0 -10 -9 -24 -19
-30 -27 -14 -29 -13 -42 11 -10 20 -9 21 10 16 14 -3 24 0 28 9 8 21 23 17 23
-6z m-2730 0 c0 -5 -4 -10 -10 -10 -5 0 -10 5 -10 10 0 6 5 10 10 10 6 0 10
-4 10 -10z m4440 -11 c-7 -11 -14 -18 -17 -15 -3 3 0 12 7 21 18 21 23 19 10
-6z m-1784 -14 c4 -16 -1 -45 -12 -73 -10 -26 -20 -78 -24 -117 l-5 -70 -38
38 c-26 27 -37 47 -37 69 0 17 -10 46 -21 65 l-22 35 29 26 28 27 -24 -27
c-13 -16 -18 -28 -12 -28 6 0 14 5 18 11 7 13 94 69 106 69 4 0 10 -11 14 -25z
m303 -22 c-10 -21 -19 -43 -19 -51 0 -7 -4 -10 -10 -7 -19 12 -11 63 12 79 34
24 38 19 17 -21z m1504 22 c-3 -9 -8 -14 -10 -11 -3 3 -2 9 2 15 9 16 15 13 8
-4z m160 -13 c-3 -14 -13 -22 -26 -22 -20 0 -20 1 3 25 27 29 32 28 23 -3z
m-133 -2 c0 -5 -5 -10 -11 -10 -5 0 -7 5 -4 10 3 6 8 10 11 10 2 0 4 -4 4 -10z
m74 -5 c-4 -8 -11 -15 -16 -15 -6 0 -5 6 2 15 7 8 14 15 16 15 2 0 1 -7 -2
-15z m126 0 c0 -10 -10 -15 -32 -15 -31 1 -32 1 -14 15 25 19 46 19 46 0z
m-275 -30 c6 0 24 -4 42 -8 l32 -8 -30 -43 -31 -43 -46 10 c-26 6 -48 12 -50
13 -4 3 26 64 40 81 6 7 15 10 22 6 6 -4 16 -8 21 -8z m-170 -5 c-3 -5 -12
-10 -18 -10 -7 0 -6 4 3 10 19 12 23 12 15 0z m-1979 -38 c6 -13 9 -33 6 -45
-6 -21 -6 -21 -12 3 l-6 25 -8 -25 c-5 -14 -8 -28 -7 -32 2 -13 -23 -9 -47 8
-28 19 -28 48 -1 75 25 25 60 21 75 -9z m1964 14 c0 -11 -19 -15 -25 -6 -3 5
1 10 9 10 9 0 16 -2 16 -4z m54 -20 c-6 -16 -24 -23 -24 -8 0 10 22 33 27 28
2 -2 1 -11 -3 -20z m335 12 c80 -12 77 -19 -17 -36 -44 -8 -50 -7 -45 7 4 14
3 14 -9 0 -7 -9 -29 -20 -48 -24 -34 -7 -34 -7 -19 16 9 13 18 29 22 35 8 14
28 15 116 2z m-1645 -7 c3 -4 -3 -26 -13 -47 -10 -22 -21 -46 -25 -54 -6 -16
2 64 10 93 6 18 19 23 28 8z m-22 -211 c5 0 6 10 3 21 -5 15 -4 19 4 15 14 -9
14 -43 0 -52 -15 -9 -36 15 -44 51 l-6 30 17 -32 c9 -18 21 -33 26 -33z m-297
20 c17 -33 20 -90 5 -90 -5 0 -10 4 -10 8 0 5 -8 17 -18 28 -27 29 -33 62 -14
74 10 5 18 10 19 10 1 0 9 -13 18 -30z m-779 -54 c-15 -55 -17 -95 -6 -117
l13 -23 10 24 c9 22 11 16 21 -45 6 -38 15 -76 19 -82 17 -27 -12 -11 -42 22
-56 64 -64 90 -58 180 5 79 5 80 -13 58 -25 -32 -30 -29 -18 11 l11 34 34 -21
c27 -15 33 -25 29 -41z m434 1 c0 -12 -10 -34 -23 -49 -18 -21 -26 -25 -44
-18 -31 13 -30 54 2 86 20 20 28 23 45 14 11 -6 20 -21 20 -33z m425 24 c3 -5
1 -12 -5 -16 -5 -3 -10 1 -10 9 0 18 6 21 15 7z m-761 -69 c-5 -48 -3 -63 15
-92 l21 -35 0 50 c0 28 4 45 8 38 4 -6 16 -13 27 -15 16 -2 20 2 18 22 l-3 25
20 -25 c24 -31 24 -41 4 -88 -9 -20 -22 -52 -29 -70 l-12 -34 -37 32 c-49 43
-57 60 -67 143 -8 60 -6 73 8 89 27 30 33 21 27 -40z m986 38 c8 0 23 -14 32
-30 20 -34 18 -36 -22 -15 l-29 15 5 -67 5 -68 -21 37 c-17 31 -19 47 -14 93
5 39 10 53 17 46 6 -6 18 -11 27 -11z m-120 -86 c0 -24 -4 -44 -8 -44 -5 0
-21 14 -38 32 -20 21 -23 29 -11 25 14 -5 19 0 24 23 9 46 33 19 33 -36z m333
-143 c44 -17 44 -97 0 -236 -9 -27 -19 -73 -22 -102 l-6 -53 -35 17 c-21 11
-36 27 -38 40 -3 22 -60 50 -139 69 -15 4 -39 16 -53 26 -14 10 -36 27 -48 36
-24 17 -37 78 -20 88 33 20 297 84 351 84 4 0 7 5 7 10 0 6 -24 10 -52 11 -39
0 -48 3 -33 9 27 12 59 12 88 1z m-608 -21 c3 -6 -4 -10 -17 -10 -18 0 -20 2
-8 10 19 12 18 12 25 0z m65 0 c0 -5 -4 -10 -10 -10 -5 0 -10 5 -10 10 0 6 5
10 10 10 6 0 10 -4 10 -10z m-190 -5 c0 -2 -9 -9 -20 -15 -16 -9 -18 -8 -14 5
5 13 34 22 34 10z m565 -3 c-13 -11 -136 -44 -142 -38 -5 5 113 45 137 45 8 1
10 -2 5 -7z m-245 -49 c0 -17 -38 -36 -58 -28 -9 3 -13 3 -9 -1 4 -4 -1 -13
-11 -20 -24 -18 0 -18 45 1 33 14 38 14 52 0 21 -21 8 -40 -60 -88 -73 -51
-143 -70 -255 -69 -85 2 -254 38 -277 61 -4 4 -1 15 5 24 12 15 17 15 55 2 24
-8 75 -17 115 -20 77 -5 69 -2 -59 25 -29 6 -53 16 -53 21 0 5 37 10 83 10
l82 2 -70 8 c-38 5 -81 9 -95 10 -79 5 -81 30 -2 28 42 -1 73 5 122 26 50 21
89 29 175 35 60 4 113 6 117 3 4 -2 9 1 12 6 8 13 86 -20 86 -36z m-904 -27
c60 -8 153 -17 206 -21 54 -4 105 -13 114 -19 15 -12 15 -15 -1 -40 -14 -21
-16 -32 -8 -45 16 -25 -25 -82 -49 -68 -38 24 -178 -31 -178 -70 0 -14 -22
-13 -82 3 -9 3 -19 1 -22 -4 -3 -6 16 -13 42 -17 62 -9 70 -15 41 -31 l-24
-13 28 -1 c31 0 34 -16 8 -47 -15 -18 -25 -21 -55 -16 -20 3 -49 0 -66 -7 -41
-17 -91 -82 -92 -120 -1 -16 -4 -30 -8 -30 -4 0 -10 69 -13 153 -4 123 -10
169 -31 242 -50 172 -39 180 190 151z m964 -256 c4 -63 6 -158 4 -210 -4 -103
9 -89 22 22 4 32 10 55 15 52 5 -3 9 4 9 15 0 40 18 21 29 -30 9 -39 8 -55 0
-66 -10 -11 -9 -12 5 -7 23 9 21 -49 -5 -201 -11 -66 -25 -149 -30 -184 -5
-35 -12 -68 -15 -75 -3 -6 1 -3 9 7 22 27 67 287 67 390 0 102 -35 246 -96
401 -16 41 86 -47 126 -109 45 -69 79 -109 87 -101 3 3 -6 21 -21 40 -42 56
-30 54 29 -4 58 -58 137 -165 174 -237 23 -46 41 -147 40 -233 0 -78 -21 -157
-57 -213 -18 -29 -33 -69 -37 -100 -8 -59 -46 -127 -104 -187 -22 -23 -47 -61
-56 -84 -11 -29 -32 -55 -61 -77 -38 -28 -51 -32 -96 -30 -32 1 -79 -6 -118
-18 -36 -12 -74 -21 -84 -21 -40 0 -153 34 -201 60 -27 15 -72 36 -100 46 -71
25 -121 58 -190 124 -33 31 -76 65 -95 75 -48 24 -88 63 -112 109 -11 21 -39
60 -63 85 -24 26 -48 64 -54 86 -25 92 -5 238 49 345 29 57 164 243 202 276
21 19 21 19 15 -11 -24 -109 -14 -309 18 -407 l15 -43 -6 40 c-3 22 -10 67
-15 100 -12 81 -11 216 2 295 10 63 54 178 64 168 3 -3 16 -67 30 -144 27
-153 54 -234 122 -367 77 -148 173 -261 241 -281 23 -8 29 3 12 20 -6 6 -26
39 -45 75 -42 77 -47 58 -6 -23 l29 -57 -29 21 c-16 12 -29 24 -29 27 0 3 -23
31 -50 61 -53 60 -156 253 -189 357 -11 34 -22 88 -26 120 l-6 58 28 -50 c49
-86 99 -159 118 -175 22 -18 19 -11 -28 59 -29 43 -128 245 -142 290 -6 18 -4
22 6 16 8 -5 73 -45 144 -89 125 -78 241 -133 252 -122 3 3 -7 10 -23 16 -55
21 -123 59 -215 119 -76 50 -87 60 -59 54 19 -5 96 -8 170 -8 128 0 138 1 182
27 l48 26 -17 -31 c-15 -30 -15 -31 1 -18 15 13 16 12 7 -13 -6 -14 -18 -40
-27 -57 -8 -17 -13 -33 -10 -36 7 -8 41 51 78 135 l32 73 15 -28 c8 -16 17
-75 21 -143z m187 54 c12 -3 32 -22 43 -41 11 -19 34 -40 50 -46 32 -12 38
-22 17 -30 -8 -3 -45 23 -83 59 -68 63 -71 70 -27 58z m-881 -18 c7 -19 -1
-32 -59 -96 l-47 -53 -20 23 -20 23 0 -26 c0 -15 6 -27 15 -29 12 -2 10 -9 -9
-33 -20 -25 -26 -28 -40 -16 -15 12 -14 16 5 48 20 32 21 60 5 103 -4 10 4 22
25 34 60 36 135 47 145 22z m1135 -94 c54 -35 68 -51 84 -99 11 -31 11 -39 0
-48 -8 -5 -17 -23 -20 -40 -4 -20 -3 -26 3 -17 7 10 14 3 30 -28 22 -46 21
-48 -42 -52 -37 -3 -39 -1 -68 51 -35 65 -104 167 -118 176 -20 12 -9 35 27
60 21 14 42 25 48 25 6 0 31 -13 56 -28z m-1341 -118 l31 -26 -21 -32 c-11
-17 -41 -68 -66 -113 -41 -74 -47 -81 -67 -74 -17 7 -21 15 -18 37 1 16 8 32
13 35 12 8 -12 49 -29 49 -7 0 -17 9 -23 20 -9 17 -7 28 10 55 48 78 113 96
170 49z m-165 -154 c3 -5 -26 -35 -65 -67 -38 -31 -70 -61 -70 -66 0 -5 7 -4
15 3 21 18 27 8 15 -24 -10 -28 -15 -96 -9 -131 3 -16 -2 -21 -28 -23 -17 -2
-50 2 -74 8 l-42 12 49 43 c59 53 46 60 -17 8 l-44 -37 45 48 c45 48 29 50
-21 2 l-27 -25 -53 20 c-95 36 -95 36 68 114 82 40 167 84 188 98 42 29 60 33
70 17z m1679 -57 c13 -28 18 -60 17 -118 -1 -72 -3 -82 -26 -102 -28 -25 -45
-62 -45 -100 0 -22 -3 -24 -22 -19 -13 4 -40 10 -60 13 -21 3 -38 8 -38 10 0
2 5 24 11 49 l11 44 42 -5 41 -5 -32 12 c-17 7 -34 16 -38 19 -3 4 -8 54 -10
112 l-3 106 37 9 c75 20 96 16 115 -25z m-1679 -2 c-3 -6 -14 -11 -23 -11 -13
0 -13 2 4 14 21 15 30 14 19 -3z m49 -52 c9 -10 11 -40 8 -96 l-4 -83 -32 -9
-31 -9 30 -1 c26 -1 33 -7 43 -34 16 -46 17 -45 -25 -56 -50 -14 -53 -14 -53
8 0 37 -21 76 -50 93 -27 16 -30 22 -30 69 0 33 8 69 21 97 22 44 22 44 66 39
25 -3 51 -11 57 -18z m1696 -109 c0 -5 -7 -10 -15 -10 -8 0 -15 5 -15 10 0 6
7 10 15 10 8 0 15 -4 15 -10z m93 -62 c71 -88 73 -109 11 -104 -44 4 -47 6
-84 67 -21 35 -36 67 -34 71 3 5 20 8 39 8 28 0 40 -8 68 -42z m-1958 -70
c-11 -6 -34 -24 -51 -40 -28 -27 -64 -31 -64 -7 0 17 75 59 105 59 27 -1 28
-2 10 -12z m1714 -64 c22 -8 42 -22 45 -29 6 -17 -15 -99 -40 -150 -10 -21
-17 -50 -16 -64 1 -14 -10 -42 -24 -63 -26 -36 -44 -49 -44 -29 0 14 -126 74
-142 69 -7 -3 14 -19 48 -36 85 -43 90 -51 58 -98 -14 -21 -40 -53 -56 -71
-17 -17 -28 -36 -24 -41 7 -11 -64 -72 -126 -107 -52 -30 -58 -31 -58 -5 0 11
-7 38 -17 61 -15 39 -15 43 2 75 10 18 25 40 35 49 15 13 20 12 50 -10 44 -33
53 -22 11 13 -44 37 -37 62 45 153 35 40 67 82 70 95 7 29 6 29 46 4 18 -11
42 -20 53 -19 13 0 6 6 -20 18 -58 26 -66 38 -54 91 6 24 19 59 30 77 17 27
27 33 55 33 18 0 51 -7 73 -16z m336 6 c26 -10 47 -47 60 -107 6 -31 5 -33
-23 -33 -16 0 -50 -6 -75 -14 l-47 -14 0 33 c0 18 -7 52 -15 75 -23 65 -21 70
29 70 25 0 56 -4 71 -10z m-2149 -23 c2 -2 -12 -24 -30 -50 -18 -26 -39 -67
-46 -92 -14 -51 -23 -54 -82 -24 -38 20 -40 22 -35 56 7 41 56 99 101 118 25
11 78 7 92 -8z m354 -13 c17 -20 39 -52 48 -71 16 -34 16 -34 -13 -58 -33 -27
-22 -34 14 -9 21 15 23 15 36 -2 21 -31 19 -35 -47 -73 -55 -33 -63 -41 -61
-65 3 -37 9 -42 28 -22 18 17 35 21 35 8 0 -5 -9 -17 -20 -27 -23 -21 -36 -15
-107 52 -48 45 -54 62 -19 56 17 -4 33 4 57 27 l34 32 -36 -21 c-42 -24 -56
-26 -56 -8 0 7 -16 37 -35 67 -52 80 -56 97 -21 111 27 11 111 37 124 38 4 1
21 -15 39 -35z m1874 -132 c2 -4 -2 -50 -10 -102 -7 -52 -14 -100 -14 -106 0
-15 -180 -28 -194 -14 -15 15 10 128 38 170 18 27 36 41 63 48 47 12 110 15
117 4z m-1998 -50 c-9 -9 -37 8 -31 18 5 8 11 7 21 -1 8 -6 12 -14 10 -17z
m-334 -11 c3 -3 4 -18 1 -33 -5 -25 -9 -28 -49 -28 -30 0 -42 4 -40 13 3 6 7
25 11 40 5 26 9 28 38 22 18 -4 35 -10 39 -14z m654 -13 c38 -28 104 -90 104
-98 0 -3 -14 -14 -31 -24 -40 -24 -31 -31 12 -11 33 16 36 16 77 -8 l42 -24
-24 -20 c-13 -12 -36 -42 -51 -68 -26 -44 -27 -46 -9 -66 13 -15 19 -16 25 -7
6 9 11 10 19 2 8 -8 6 -15 -5 -24 -14 -11 -26 -8 -83 19 -37 18 -83 45 -102
61 -31 25 -33 30 -23 53 10 21 8 31 -14 64 -34 52 -92 96 -120 90 -41 -8 -24
7 49 46 84 43 95 44 134 15z m-671 -68 c20 0 30 -13 59 -72 19 -40 38 -90 42
-110 l6 -38 -73 0 c-41 0 -84 3 -96 6 -26 7 -43 67 -43 153 0 57 1 60 28 64
15 2 33 2 40 0 8 -1 24 -3 37 -3z m2345 -185 c-17 -86 -35 -125 -59 -125 -14
0 -18 5 -14 21 4 15 8 17 14 8 14 -24 19 -4 8 37 -6 21 -16 42 -23 46 -17 11
-79 9 -115 -3 -18 -6 -34 -10 -36 -8 -2 3 1 25 6 50 11 52 8 50 152 65 59 6
67 9 69 28 1 11 3 3 5 -19 3 -22 -1 -67 -7 -100z m-1363 48 l85 -38 -6 -67
c-2 -37 -10 -77 -16 -88 -6 -12 -9 -25 -5 -28 14 -15 34 34 41 98 l6 68 32
-10 c17 -6 52 -15 77 -20 l46 -10 0 -67 c1 -36 6 -79 12 -95 6 -16 9 -31 6
-34 -9 -9 -191 27 -230 45 -38 18 -44 30 -20 39 26 10 17 21 -56 59 -82 43
-126 58 -135 44 -6 -10 -24 -3 -24 10 0 10 89 131 97 131 3 0 44 -17 90 -37z
m543 -53 c0 -5 -4 -10 -10 -10 -5 0 -10 5 -10 10 0 6 5 10 10 10 6 0 10 -4 10
-10z m-28 -28 c31 -52 51 -123 38 -136 -8 -8 -13 -7 -19 3 -11 17 -89 11 -169
-14 -45 -14 -52 -19 -47 -36 4 -10 2 -19 -3 -19 -18 0 -32 53 -32 125 l0 74
33 6 c17 3 52 10 77 14 85 16 104 14 122 -17z m765 -19 c-27 -178 -29 -204
-18 -217 21 -25 -59 -219 -106 -258 -15 -12 -15 -11 -5 9 21 38 14 60 -30 92
-22 17 -45 32 -50 33 -4 2 -5 25 -2 52 l7 49 83 -7 c55 -4 85 -2 89 5 4 6 1 9
-6 8 -8 -2 -51 0 -96 5 -60 5 -83 11 -87 23 -8 19 3 128 15 160 13 35 114 79
188 82 22 1 23 -2 18 -36z m-2170 1 c12 -3 26 -19 32 -34 l9 -28 -99 -4 c-71
-2 -102 -7 -108 -17 -6 -9 -10 2 -13 33 -2 26 -1 49 1 52 6 6 153 5 178 -2z
m50 -88 c8 -7 49 -207 44 -210 -15 -9 -136 -34 -143 -30 -5 3 -8 18 -8 33 0
36 -39 152 -57 171 -12 13 -13 11 -4 -13 15 -38 14 -47 -4 -47 -8 0 -15 8 -15
19 0 10 -3 32 -6 49 -5 26 -3 31 17 35 21 4 170 -2 176 -7z m87 -283 c6 -19 2
-25 -20 -33 -14 -6 -44 -23 -65 -38 -29 -20 -39 -34 -39 -56 0 -23 -3 -26 -14
-17 -27 23 -83 183 -58 167 13 -8 106 10 140 27 24 12 28 11 38 -7 6 -12 15
-31 18 -43z m1839 -11 c64 -34 69 -42 52 -76 -18 -35 -19 -49 -2 -41 6 4 3 -1
-7 -9 -44 -36 -70 -8 -29 30 49 45 -2 18 -85 -46 -86 -66 -120 -99 -90 -87 9
3 21 0 27 -6 7 -10 -1 -13 -35 -15 -26 -1 -44 3 -44 9 0 6 -13 28 -29 48 -16
20 -37 53 -47 73 -20 44 -16 52 55 101 91 62 145 67 234 19z m-1765 -42 c21
-11 48 -34 61 -50 20 -28 21 -34 10 -68 -19 -59 -57 -109 -87 -115 -27 -5 -52
7 -52 25 0 6 7 5 15 -2 11 -9 15 -9 15 -1 0 17 -90 110 -123 127 -24 13 -26
18 -16 30 12 15 116 72 131 74 4 0 25 -9 46 -20z m1215 -83 c19 -12 107 -160
107 -179 0 -3 -18 -10 -41 -17 -51 -15 -45 -25 10 -16 23 4 42 13 46 23 4 10
-9 48 -33 94 -44 87 -49 79 53 98 33 6 68 14 77 16 11 3 19 -3 24 -18 3 -12
30 -51 58 -86 41 -51 55 -63 73 -59 37 7 27 -2 -29 -28 -83 -38 -165 -55 -259
-55 -90 0 -101 5 -112 48 -4 17 -1 22 13 22 28 0 51 -11 44 -21 -3 -5 4 -9 15
-9 32 0 35 19 4 32 -39 16 -218 17 -234 1 -11 -11 -9 -13 8 -13 24 0 37 -34
19 -49 -33 -27 -112 -42 -183 -35 -40 3 -73 11 -73 16 0 17 41 63 63 70 12 4
-27 6 -88 4 -69 -1 -119 -8 -135 -16 l-25 -14 25 -6 c14 -4 28 -2 32 4 4 6 8
-3 8 -20 0 -23 -6 -34 -25 -42 -35 -16 -190 -15 -245 2 -39 11 -45 17 -48 42
-3 29 -2 29 45 26 40 -2 45 -1 29 9 -22 14 -207 7 -246 -9 -24 -10 -24 -11 -2
-11 18 -1 22 -7 22 -36 0 -22 -5 -35 -13 -35 -30 0 -122 33 -163 59 -39 24
-42 28 -25 38 10 6 33 36 50 65 17 29 31 45 31 36 0 -10 7 -18 15 -18 16 0 30
-59 22 -92 -7 -25 8 -48 31 -48 13 0 12 3 -3 14 -18 13 -18 15 0 82 10 38 22
75 28 82 13 17 112 15 175 -3 54 -16 83 -44 108 -104 8 -18 14 -35 14 -36 0
-2 -16 -10 -35 -19 -35 -17 -50 -41 -17 -29 35 13 62 36 62 52 -1 9 -9 34 -20
56 -10 22 -18 40 -17 41 1 1 25 4 54 7 l51 6 7 -62 c4 -34 14 -70 23 -79 16
-19 72 -25 72 -9 0 5 -8 7 -17 5 -36 -10 -53 17 -59 91 l-6 70 43 17 c148 56
172 52 239 -44 54 -77 54 -85 -2 -114 -15 -8 -28 -19 -28 -25 0 -6 19 0 43 14
53 33 53 59 -2 139 l-40 57 32 5 c18 3 53 8 78 11 l46 6 -6 -36 c-3 -20 -4
-63 -3 -96 3 -50 8 -62 27 -75 17 -11 29 -13 41 -6 13 7 11 10 -15 15 l-31 7
0 95 c0 90 1 96 23 105 33 15 162 6 190 -13z m-1383 -27 c0 -11 -4 -20 -9 -20
-5 0 -7 9 -4 20 3 11 7 20 9 20 2 0 4 -9 4 -20z m-38 -15 c21 -27 47 -32 66
-13 19 19 54 -19 47 -52 -5 -23 1 -32 40 -62 25 -20 41 -38 34 -40 -28 -9
-143 11 -168 29 -44 33 -64 77 -56 123 4 22 9 40 12 40 3 0 14 -11 25 -25z
m1962 -29 c6 -24 1 -33 -35 -67 -40 -36 -90 -59 -132 -59 -13 0 -5 10 25 33
42 32 63 77 36 77 -7 0 -2 9 12 19 13 11 28 17 32 15 4 -3 12 5 18 17 10 18
14 19 25 8 7 -8 16 -27 19 -43z m-1971 -104 c27 -29 115 -55 185 -54 l54 0
-20 -21 c-11 -12 -18 -27 -15 -33 2 -6 -3 -17 -12 -24 -8 -7 -15 -16 -15 -21
0 -5 -14 -39 -31 -76 -74 -164 -138 -325 -153 -385 l-6 -27 -43 19 c-23 10
-70 24 -104 30 -35 7 -63 16 -63 20 0 4 11 32 24 61 31 73 59 170 91 319 15
69 31 142 37 162 6 20 8 54 5 76 -9 53 2 59 25 14 11 -20 30 -47 41 -60z
m1031 -9 c-5 -5 -12 -12 -16 -18 -4 -6 -8 -2 -8 8 0 9 7 17 17 17 9 0 12 -3 7
-7z m726 -83 c0 -5 -2 -10 -4 -10 -3 0 -8 5 -11 10 -3 6 -1 10 4 10 6 0 11 -4
11 -10z m554 -557 c43 -85 -16 -153 -97 -112 -31 16 -87 71 -87 85 0 14 60 63
104 86 28 15 31 14 47 -6 9 -11 24 -35 33 -53z m-2431 -61 c66 -22 72 -32 57
-88 -15 -53 -49 -98 -93 -120 -28 -15 -32 -15 -55 3 -53 39 -67 70 -66 140 1
98 28 109 157 65z"/>
<path d="M3963 5757 c-18 -7 -38 -18 -45 -26 -11 -12 -10 -13 7 -6 11 4 32 12
48 17 15 5 27 14 27 19 0 5 -1 9 -2 8 -2 0 -17 -6 -35 -12z"/>
<path d="M4056 5714 c-5 -14 -4 -15 9 -4 17 14 19 20 6 20 -5 0 -12 -7 -15
-16z"/>
<path d="M3864 5575 c-4 -8 -10 -13 -14 -10 -9 5 -25 -33 -18 -41 8 -7 48 36
48 51 0 19 -9 19 -16 0z"/>
<path d="M4072 5370 c0 -14 2 -19 5 -12 2 6 2 18 0 25 -3 6 -5 1 -5 -13z"/>
<path d="M4080 5152 c0 -4 14 -13 30 -19 36 -14 40 -1 5 15 -31 14 -35 15 -35
4z"/>
<path d="M4141 5084 c0 -11 3 -14 6 -6 3 7 2 16 -1 19 -3 4 -6 -2 -5 -13z"/>
<path d="M5965 5190 c-3 -5 -1 -10 4 -10 6 0 11 5 11 10 0 6 -2 10 -4 10 -3 0
-8 -4 -11 -10z"/>
<path d="M4559 5210 c-1 -8 -1 -23 0 -32 1 -10 -3 -18 -8 -18 -6 0 -11 -5 -11
-10 0 -7 6 -7 20 0 22 12 26 36 10 60 -9 13 -10 13 -11 0z"/>
<path d="M4379 5104 c-6 -7 -8 -18 -4 -24 9 -15 25 -12 19 4 -5 12 4 12 58 0
35 -7 75 -13 91 -14 15 0 27 -4 27 -10 0 -5 -12 -11 -27 -11 -21 -1 -23 -3 -7
-6 26 -5 77 14 69 26 -3 5 -36 13 -73 16 -37 4 -84 13 -104 20 -31 10 -40 10
-49 -1z"/>
<path d="M6049 5123 c-13 -16 -12 -17 4 -4 16 13 21 21 13 21 -2 0 -10 -8 -17
-17z"/>
<path d="M6340 5090 c-9 -6 -10 -10 -3 -10 6 0 15 5 18 10 8 12 4 12 -15 0z"/>
<path d="M6524 5074 c-18 -14 -18 -14 6 -3 31 14 36 19 24 19 -6 0 -19 -7 -30
-16z"/>
<path d="M6738 5083 c-10 -2 -18 -9 -18 -14 0 -14 16 -11 30 6 7 8 11 14 9 14
-2 -1 -12 -3 -21 -6z"/>
<path d="M4637 5255 c-13 -9 -15 -15 -7 -20 14 -8 34 9 29 23 -3 7 -11 6 -22
-3z"/>
<path d="M5730 4980 c-9 -6 -10 -10 -3 -10 6 0 15 5 18 10 8 12 4 12 -15 0z"/>
<path d="M6685 4890 c17 -4 66 -8 110 -8 71 0 75 1 35 9 -60 10 -187 10 -145
-1z"/>
<path d="M6075 4790 c-3 -5 1 -10 10 -10 9 0 13 5 10 10 -3 6 -8 10 -10 10 -2
0 -7 -4 -10 -10z"/>
<path d="M4480 4620 c-7 -4 -10 -16 -8 -26 3 -14 11 -18 31 -17 24 2 27 -2 27
-27 0 -16 4 -31 9 -34 4 -3 5 13 0 37 -4 23 -8 47 -9 53 0 15 -34 24 -50 14z
m30 -25 c0 -8 -4 -15 -10 -15 -5 0 -10 7 -10 15 0 8 5 15 10 15 6 0 10 -7 10
-15z"/>
<path d="M5410 4648 c0 -25 3 -29 10 -18 13 20 13 50 0 50 -5 0 -10 -15 -10
-32z"/>
<path d="M3868 4551 c-55 -56 -66 -92 -12 -40 41 39 79 89 67 88 -4 0 -29 -22
-55 -48z"/>
<path d="M3891 4447 c-8 -11 -4 -13 22 -10 l32 4 -37 -21 c-68 -37 -40 -41 32
-5 39 19 70 37 70 40 0 12 -108 4 -119 -8z"/>
<path d="M1888 4638 c-6 -16 60 -87 103 -112 l32 -19 -19 32 c-20 33 -83 97
-70 71 4 -8 0 -6 -8 4 -9 11 -16 23 -16 28 0 13 -18 9 -22 -4z m82 -68 c6 -11
9 -20 7 -20 -2 0 -12 9 -22 20 -10 11 -13 20 -7 20 6 0 16 -9 22 -20z"/>
<path d="M1960 4620 c14 -10 27 -17 29 -14 6 5 -31 33 -44 33 -5 1 1 -8 15
-19z"/>
<path d="M3380 4418 c0 -13 5 -30 10 -38 7 -11 10 -7 10 17 0 17 -4 35 -10 38
-6 3 -10 -4 -10 -17z"/>
<path d="M6233 4479 c-5 -8 -16 -25 -23 -39 -12 -24 -12 -24 15 3 14 15 25 33
23 38 -2 7 -8 6 -15 -2z"/>
<path d="M4666 4339 c-10 -17 -16 -33 -13 -36 3 -3 13 9 22 27 9 18 15 34 13
36 -2 2 -12 -10 -22 -27z"/>
<path d="M6519 4349 c-21 -30 -21 -31 -1 -18 12 7 19 15 17 18 -3 2 0 10 6 18
6 7 9 13 6 13 -3 0 -16 -14 -28 -31z"/>
<path d="M5231 3592 c-6 -12 -21 -23 -33 -25 -17 -3 -15 -5 9 -6 24 -1 33 4
38 20 9 28 -1 35 -14 11z"/>
<path d="M4630 3710 c-11 -8 -7 -9 15 -4 37 8 45 14 19 14 -10 0 -26 -5 -34
-10z"/>
<path d="M4548 3683 c23 -2 59 -2 80 0 20 2 1 4 -43 4 -44 0 -61 -2 -37 -4z"/>
<path d="M4410 3296 c0 -2 7 -9 15 -16 13 -11 14 -10 9 4 -5 14 -24 23 -24 12z"/>
<path d="M4401 3254 c0 -11 3 -14 6 -6 3 7 2 16 -1 19 -3 4 -6 -2 -5 -13z"/>
<path d="M4470 3174 c13 -34 120 -188 126 -181 4 4 -115 189 -132 206 -2 3 1
-9 6 -25z"/>
<path d="M4261 2994 c-1 -40 26 -150 35 -141 3 3 -2 31 -10 63 -8 33 -17 73
-19 89 -3 25 -4 23 -6 -11z"/>
<path d="M4311 2863 c-1 -12 4 -25 9 -28 12 -7 12 2 0 30 -8 19 -9 19 -9 -2z"/>
<path d="M4922 2831 c-7 -19 -12 -41 -11 -50 0 -9 7 2 15 23 8 22 13 45 11 50
-2 6 -9 -5 -15 -23z"/>
<path d="M4871 2773 c-10 -26 -10 -27 4 -9 8 11 15 23 15 28 0 15 -7 8 -19
-19z"/>
<path d="M5380 3270 c-14 -11 -20 -20 -14 -20 14 0 50 27 44 33 -3 3 -16 -3
-30 -13z"/>
<path d="M4151 2323 c-13 -29 -8 -29 24 1 24 23 25 25 7 23 -12 0 -25 -11 -31
-24z"/>
<path d="M5485 1650 c-3 -5 -1 -10 4 -10 6 0 11 5 11 10 0 6 -2 10 -4 10 -3 0
-8 -4 -11 -10z"/>
<path d="M5776 1436 c-58 -40 -176 -153 -176 -169 0 -6 24 11 53 39 28 27 63
59 76 69 24 20 24 19 -4 -30 -15 -27 -46 -65 -67 -84 -21 -18 -36 -36 -33 -39
3 -3 17 5 31 19 l26 24 -7 -25 c-12 -37 -24 -93 -25 -108 0 -30 18 1 29 50 13
59 57 149 46 94 -16 -78 -17 -91 -7 -81 5 6 12 19 14 30 2 15 10 19 28 17 24
-2 24 -2 6 12 -18 14 -17 16 15 45 36 34 58 24 33 -15 -8 -12 -13 -26 -12 -31
2 -6 -39 -50 -90 -99 -51 -49 -92 -95 -92 -103 0 -7 35 21 79 63 43 43 117
107 165 143 47 36 84 68 81 71 -2 3 -16 -3 -31 -13 l-27 -17 5 26 c6 29 -3 34
-22 11 -7 -8 -17 -15 -22 -15 -6 0 4 16 21 35 39 44 41 58 3 22 -33 -31 -44
-34 -36 -9 5 15 4 15 -8 2 -17 -20 -88 -52 -88 -41 0 11 74 106 90 116 12 7
14 25 3 25 -5 -1 -30 -16 -57 -34z m65 -169 c-11 -12 -23 -19 -25 -16 -9 9 25
50 36 43 6 -4 2 -14 -11 -27z"/>
<path d="M5685 1320 c-3 -5 -1 -10 4 -10 6 0 11 5 11 10 0 6 -2 10 -4 10 -3 0
-8 -4 -11 -10z"/>
<path d="M5882 1242 c-35 -30 -42 -45 -14 -35 16 6 16 5 0 -14 -10 -11 -18
-30 -17 -44 0 -23 1 -23 12 -5 7 11 23 31 37 44 14 13 24 29 22 34 -1 5 2 18
8 28 16 29 -8 25 -48 -8z"/>
<path d="M5757 1153 c-4 -3 -7 -18 -8 -32 0 -14 -3 -20 -6 -13 -7 18 -27 15
-50 -10 -31 -35 -40 -56 -13 -33 l23 20 -7 -22 c-10 -32 17 -30 38 2 9 14 23
25 31 25 18 0 38 37 31 56 -6 15 -28 19 -39 7z m15 -35 c-7 -7 -12 -8 -12 -2
0 14 12 26 19 19 2 -3 -1 -11 -7 -17z"/>
</g>
</svg>
